<?xml version="1.0" encoding="utf-8"?>
<svg xmlns="http://www.w3.org/2000/svg" xmlns:xlink="http://www.w3.org/1999/xlink" width="1400" height="1200" viewBox="0 0 5600 4800">
<defs>
  <clipPath id="clip300">
    <rect x="0" y="0" width="5600" height="4800"/>
  </clipPath>
</defs>
<path clip-path="url(#clip300)" d="
M0 4800 L5600 4800 L5600 0 L0 0  Z
  " fill="#ffffff" fill-rule="evenodd" fill-opacity="1"/>
<defs>
  <clipPath id="clip301">
    <rect x="1120" y="0" width="3921" height="3921"/>
  </clipPath>
</defs>
<path clip-path="url(#clip300)" d="
M553.338 4322.29 L5411.02 4322.29 L5411.02 188.976 L553.338 188.976  Z
  " fill="#ffffff" fill-rule="evenodd" fill-opacity="1"/>
<defs>
  <clipPath id="clip302">
    <rect x="553" y="188" width="4859" height="4134"/>
  </clipPath>
</defs>
<polyline clip-path="url(#clip302)" style="stroke:#000000; stroke-width:8; stroke-opacity:0.1; fill:none" points="
  1200.01,4322.29 1200.01,188.976 
  "/>
<polyline clip-path="url(#clip302)" style="stroke:#000000; stroke-width:8; stroke-opacity:0.1; fill:none" points="
  2218.39,4322.29 2218.39,188.976 
  "/>
<polyline clip-path="url(#clip302)" style="stroke:#000000; stroke-width:8; stroke-opacity:0.1; fill:none" points="
  3236.78,4322.29 3236.78,188.976 
  "/>
<polyline clip-path="url(#clip302)" style="stroke:#000000; stroke-width:8; stroke-opacity:0.1; fill:none" points="
  4255.16,4322.29 4255.16,188.976 
  "/>
<polyline clip-path="url(#clip302)" style="stroke:#000000; stroke-width:8; stroke-opacity:0.1; fill:none" points="
  5273.54,4322.29 5273.54,188.976 
  "/>
<polyline clip-path="url(#clip302)" style="stroke:#000000; stroke-width:8; stroke-opacity:0.1; fill:none" points="
  553.338,4249.12 5411.02,4249.12 
  "/>
<polyline clip-path="url(#clip302)" style="stroke:#000000; stroke-width:8; stroke-opacity:0.1; fill:none" points="
  553.338,3260.71 5411.02,3260.71 
  "/>
<polyline clip-path="url(#clip302)" style="stroke:#000000; stroke-width:8; stroke-opacity:0.1; fill:none" points="
  553.338,2272.31 5411.02,2272.31 
  "/>
<polyline clip-path="url(#clip302)" style="stroke:#000000; stroke-width:8; stroke-opacity:0.1; fill:none" points="
  553.338,1283.91 5411.02,1283.91 
  "/>
<polyline clip-path="url(#clip302)" style="stroke:#000000; stroke-width:8; stroke-opacity:0.1; fill:none" points="
  553.338,295.503 5411.02,295.503 
  "/>
<polyline clip-path="url(#clip300)" style="stroke:#000000; stroke-width:16; stroke-opacity:1; fill:none" points="
  553.338,4322.29 5411.02,4322.29 
  "/>
<polyline clip-path="url(#clip300)" style="stroke:#000000; stroke-width:16; stroke-opacity:1; fill:none" points="
  553.338,4322.29 553.338,188.976 
  "/>
<polyline clip-path="url(#clip300)" style="stroke:#000000; stroke-width:16; stroke-opacity:1; fill:none" points="
  1200.01,4322.29 1200.01,4272.69 
  "/>
<polyline clip-path="url(#clip300)" style="stroke:#000000; stroke-width:16; stroke-opacity:1; fill:none" points="
  2218.39,4322.29 2218.39,4272.69 
  "/>
<polyline clip-path="url(#clip300)" style="stroke:#000000; stroke-width:16; stroke-opacity:1; fill:none" points="
  3236.78,4322.29 3236.78,4272.69 
  "/>
<polyline clip-path="url(#clip300)" style="stroke:#000000; stroke-width:16; stroke-opacity:1; fill:none" points="
  4255.16,4322.29 4255.16,4272.69 
  "/>
<polyline clip-path="url(#clip300)" style="stroke:#000000; stroke-width:16; stroke-opacity:1; fill:none" points="
  5273.54,4322.29 5273.54,4272.69 
  "/>
<polyline clip-path="url(#clip300)" style="stroke:#000000; stroke-width:16; stroke-opacity:1; fill:none" points="
  553.338,4249.12 611.63,4249.12 
  "/>
<polyline clip-path="url(#clip300)" style="stroke:#000000; stroke-width:16; stroke-opacity:1; fill:none" points="
  553.338,3260.71 611.63,3260.71 
  "/>
<polyline clip-path="url(#clip300)" style="stroke:#000000; stroke-width:16; stroke-opacity:1; fill:none" points="
  553.338,2272.31 611.63,2272.31 
  "/>
<polyline clip-path="url(#clip300)" style="stroke:#000000; stroke-width:16; stroke-opacity:1; fill:none" points="
  553.338,1283.91 611.63,1283.91 
  "/>
<polyline clip-path="url(#clip300)" style="stroke:#000000; stroke-width:16; stroke-opacity:1; fill:none" points="
  553.338,295.503 611.63,295.503 
  "/>
<path clip-path="url(#clip300)" d="M 0 0 M1089.83 4448.87 L1208.53 4448.87 L1208.53 4464.61 L1089.83 4464.61 L1089.83 4448.87 Z" fill="#000000" fill-rule="evenodd" fill-opacity="1" /><path clip-path="url(#clip300)" d="M 0 0 M1244.92 4500.44 L1310.2 4500.44 L1310.2 4516.18 L1222.42 4516.18 L1222.42 4500.44 Q1233.07 4489.42 1251.4 4470.9 Q1269.83 4452.29 1274.55 4446.92 Q1283.53 4436.83 1287.05 4429.89 Q1290.66 4422.85 1290.66 4416.09 Q1290.66 4405.07 1282.88 4398.13 Q1275.2 4391.18 1262.79 4391.18 Q1253.99 4391.18 1244.18 4394.24 Q1234.45 4397.29 1223.34 4403.5 L1223.34 4384.61 Q1234.64 4380.07 1244.45 4377.76 Q1254.27 4375.44 1262.42 4375.44 Q1283.9 4375.44 1296.68 4386.18 Q1309.45 4396.92 1309.45 4414.89 Q1309.45 4423.41 1306.21 4431.09 Q1303.07 4438.68 1294.64 4449.05 Q1292.32 4451.74 1279.92 4464.61 Q1267.51 4477.39 1244.92 4500.44 Z" fill="#000000" fill-rule="evenodd" fill-opacity="1" /><path clip-path="url(#clip300)" d="M 0 0 M2218.39 4390.26 Q2203.95 4390.26 2196.63 4404.52 Q2189.41 4418.68 2189.41 4447.2 Q2189.41 4475.63 2196.63 4489.89 Q2203.95 4504.05 2218.39 4504.05 Q2232.93 4504.05 2240.15 4489.89 Q2247.47 4475.63 2247.47 4447.2 Q2247.47 4418.68 2240.15 4404.52 Q2232.93 4390.26 2218.39 4390.26 M2218.39 4375.44 Q2241.63 4375.44 2253.86 4393.87 Q2266.17 4412.2 2266.17 4447.2 Q2266.17 4482.11 2253.86 4500.53 Q2241.63 4518.87 2218.39 4518.87 Q2195.15 4518.87 2182.84 4500.53 Q2170.62 4482.11 2170.62 4447.2 Q2170.62 4412.2 2182.84 4393.87 Q2195.15 4375.44 2218.39 4375.44 Z" fill="#000000" fill-rule="evenodd" fill-opacity="1" /><path clip-path="url(#clip300)" d="M 0 0 M3215.39 4500.44 L3280.66 4500.44 L3280.66 4516.18 L3192.89 4516.18 L3192.89 4500.44 Q3203.54 4489.42 3221.87 4470.9 Q3240.29 4452.29 3245.02 4446.92 Q3254 4436.83 3257.52 4429.89 Q3261.13 4422.85 3261.13 4416.09 Q3261.13 4405.07 3253.35 4398.13 Q3245.67 4391.18 3233.26 4391.18 Q3224.46 4391.18 3214.65 4394.24 Q3204.92 4397.29 3193.81 4403.5 L3193.81 4384.61 Q3205.11 4380.07 3214.92 4377.76 Q3224.74 4375.44 3232.89 4375.44 Q3254.37 4375.44 3267.15 4386.18 Q3279.92 4396.92 3279.92 4414.89 Q3279.92 4423.41 3276.68 4431.09 Q3273.54 4438.68 3265.11 4449.05 Q3262.79 4451.74 3250.39 4464.61 Q3237.98 4477.39 3215.39 4500.44 Z" fill="#000000" fill-rule="evenodd" fill-opacity="1" /><path clip-path="url(#clip300)" d="M 0 0 M4267.2 4394.24 L4219.97 4468.03 L4267.2 4468.03 L4267.2 4394.24 M4262.29 4377.94 L4285.81 4377.94 L4285.81 4468.03 L4305.53 4468.03 L4305.53 4483.59 L4285.81 4483.59 L4285.81 4516.18 L4267.2 4516.18 L4267.2 4483.59 L4204.79 4483.59 L4204.79 4465.53 L4262.29 4377.94 Z" fill="#000000" fill-rule="evenodd" fill-opacity="1" /><path clip-path="url(#clip300)" d="M 0 0 M5275.16 4439.61 Q5262.57 4439.61 5255.16 4448.22 Q5247.85 4456.83 5247.85 4471.83 Q5247.85 4486.74 5255.16 4495.44 Q5262.57 4504.05 5275.16 4504.05 Q5287.75 4504.05 5295.07 4495.44 Q5302.48 4486.74 5302.48 4471.83 Q5302.48 4456.83 5295.07 4448.22 Q5287.75 4439.61 5275.16 4439.61 M5312.29 4381 L5312.29 4398.03 Q5305.25 4394.7 5298.03 4392.94 Q5290.9 4391.18 5283.87 4391.18 Q5265.35 4391.18 5255.53 4403.68 Q5245.81 4416.18 5244.42 4441.46 Q5249.88 4433.41 5258.13 4429.15 Q5266.37 4424.79 5276.27 4424.79 Q5297.11 4424.79 5309.14 4437.48 Q5321.27 4450.07 5321.27 4471.83 Q5321.27 4493.13 5308.68 4506 Q5296.09 4518.87 5275.16 4518.87 Q5251.18 4518.87 5238.5 4500.53 Q5225.81 4482.11 5225.81 4447.2 Q5225.81 4414.42 5241.37 4394.98 Q5256.92 4375.44 5283.13 4375.44 Q5290.16 4375.44 5297.29 4376.83 Q5304.51 4378.22 5312.29 4381 Z" fill="#000000" fill-rule="evenodd" fill-opacity="1" /><path clip-path="url(#clip300)" d="M 0 0 M301.69 4192.31 Q287.246 4192.31 279.931 4206.57 Q272.709 4220.74 272.709 4249.26 Q272.709 4277.68 279.931 4291.94 Q287.246 4306.11 301.69 4306.11 Q316.227 4306.11 323.45 4291.94 Q330.764 4277.68 330.764 4249.26 Q330.764 4220.74 323.45 4206.57 Q316.227 4192.31 301.69 4192.31 M301.69 4177.5 Q324.931 4177.5 337.153 4195.92 Q349.468 4214.26 349.468 4249.26 Q349.468 4284.16 337.153 4302.59 Q324.931 4320.92 301.69 4320.92 Q278.45 4320.92 266.135 4302.59 Q253.913 4284.16 253.913 4249.26 Q253.913 4214.26 266.135 4195.92 Q278.45 4177.5 301.69 4177.5 Z" fill="#000000" fill-rule="evenodd" fill-opacity="1" /><path clip-path="url(#clip300)" d="M 0 0 M369.746 4294.72 L389.283 4294.72 L389.283 4318.24 L369.746 4318.24 L369.746 4294.72 Z" fill="#000000" fill-rule="evenodd" fill-opacity="1" /><path clip-path="url(#clip300)" d="M 0 0 M449.56 4192.31 Q435.116 4192.31 427.801 4206.57 Q420.579 4220.74 420.579 4249.26 Q420.579 4277.68 427.801 4291.94 Q435.116 4306.11 449.56 4306.11 Q464.097 4306.11 471.319 4291.94 Q478.634 4277.68 478.634 4249.26 Q478.634 4220.74 471.319 4206.57 Q464.097 4192.31 449.56 4192.31 M449.56 4177.5 Q472.801 4177.5 485.023 4195.92 Q497.338 4214.26 497.338 4249.26 Q497.338 4284.16 485.023 4302.59 Q472.801 4320.92 449.56 4320.92 Q426.319 4320.92 414.005 4302.59 Q401.783 4284.16 401.783 4249.26 Q401.783 4214.26 414.005 4195.92 Q426.319 4177.5 449.56 4177.5 Z" fill="#000000" fill-rule="evenodd" fill-opacity="1" /><path clip-path="url(#clip300)" d="M 0 0 M306.598 3203.91 Q292.153 3203.91 284.839 3218.17 Q277.617 3232.33 277.617 3260.85 Q277.617 3289.28 284.839 3303.54 Q292.153 3317.7 306.598 3317.7 Q321.135 3317.7 328.357 3303.54 Q335.672 3289.28 335.672 3260.85 Q335.672 3232.33 328.357 3218.17 Q321.135 3203.91 306.598 3203.91 M306.598 3189.09 Q329.838 3189.09 342.061 3207.52 Q354.375 3225.85 354.375 3260.85 Q354.375 3295.76 342.061 3314.19 Q329.838 3332.52 306.598 3332.52 Q283.357 3332.52 271.042 3314.19 Q258.82 3295.76 258.82 3260.85 Q258.82 3225.85 271.042 3207.52 Q283.357 3189.09 306.598 3189.09 Z" fill="#000000" fill-rule="evenodd" fill-opacity="1" /><path clip-path="url(#clip300)" d="M 0 0 M374.653 3306.32 L394.19 3306.32 L394.19 3329.83 L374.653 3329.83 L374.653 3306.32 Z" fill="#000000" fill-rule="evenodd" fill-opacity="1" /><path clip-path="url(#clip300)" d="M 0 0 M417.708 3314.09 L448.264 3314.09 L448.264 3208.63 L415.023 3215.3 L415.023 3198.26 L448.079 3191.59 L466.782 3191.59 L466.782 3314.09 L497.338 3314.09 L497.338 3329.83 L417.708 3329.83 L417.708 3314.09 Z" fill="#000000" fill-rule="evenodd" fill-opacity="1" /><path clip-path="url(#clip300)" d="M 0 0 M308.079 2215.51 Q293.635 2215.51 286.32 2229.76 Q279.098 2243.93 279.098 2272.45 Q279.098 2300.88 286.32 2315.13 Q293.635 2329.3 308.079 2329.3 Q322.616 2329.3 329.838 2315.13 Q337.153 2300.88 337.153 2272.45 Q337.153 2243.93 329.838 2229.76 Q322.616 2215.51 308.079 2215.51 M308.079 2200.69 Q331.32 2200.69 343.542 2219.12 Q355.857 2237.45 355.857 2272.45 Q355.857 2307.36 343.542 2325.78 Q331.32 2344.12 308.079 2344.12 Q284.839 2344.12 272.524 2325.78 Q260.302 2307.36 260.302 2272.45 Q260.302 2237.45 272.524 2219.12 Q284.839 2200.69 308.079 2200.69 Z" fill="#000000" fill-rule="evenodd" fill-opacity="1" /><path clip-path="url(#clip300)" d="M 0 0 M376.135 2317.91 L395.671 2317.91 L395.671 2341.43 L376.135 2341.43 L376.135 2317.91 Z" fill="#000000" fill-rule="evenodd" fill-opacity="1" /><path clip-path="url(#clip300)" d="M 0 0 M432.06 2325.69 L497.338 2325.69 L497.338 2341.43 L409.56 2341.43 L409.56 2325.69 Q420.208 2314.67 438.542 2296.15 Q456.967 2277.54 461.69 2272.17 Q470.671 2262.08 474.19 2255.13 Q477.801 2248.1 477.801 2241.34 Q477.801 2230.32 470.023 2223.38 Q462.338 2216.43 449.93 2216.43 Q441.134 2216.43 431.319 2219.49 Q421.597 2222.54 410.486 2228.75 L410.486 2209.86 Q421.782 2205.32 431.597 2203.01 Q441.412 2200.69 449.56 2200.69 Q471.041 2200.69 483.819 2211.43 Q496.597 2222.17 496.597 2240.13 Q496.597 2248.65 493.356 2256.34 Q490.208 2263.93 481.782 2274.3 Q479.467 2276.99 467.06 2289.86 Q454.653 2302.63 432.06 2325.69 Z" fill="#000000" fill-rule="evenodd" fill-opacity="1" /><path clip-path="url(#clip300)" d="M 0 0 M304.283 1227.1 Q289.839 1227.1 282.524 1241.36 Q275.302 1255.53 275.302 1284.05 Q275.302 1312.47 282.524 1326.73 Q289.839 1340.9 304.283 1340.9 Q318.82 1340.9 326.042 1326.73 Q333.357 1312.47 333.357 1284.05 Q333.357 1255.53 326.042 1241.36 Q318.82 1227.1 304.283 1227.1 M304.283 1212.29 Q327.524 1212.29 339.746 1230.71 Q352.061 1249.05 352.061 1284.05 Q352.061 1318.95 339.746 1337.38 Q327.524 1355.71 304.283 1355.71 Q281.042 1355.71 268.728 1337.38 Q256.506 1318.95 256.506 1284.05 Q256.506 1249.05 268.728 1230.71 Q281.042 1212.29 304.283 1212.29 Z" fill="#000000" fill-rule="evenodd" fill-opacity="1" /><path clip-path="url(#clip300)" d="M 0 0 M372.338 1329.51 L391.875 1329.51 L391.875 1353.03 L372.338 1353.03 L372.338 1329.51 Z" fill="#000000" fill-rule="evenodd" fill-opacity="1" /><path clip-path="url(#clip300)" d="M 0 0 M468.819 1278.49 Q482.245 1281.36 489.745 1290.43 Q497.338 1299.51 497.338 1312.84 Q497.338 1333.3 483.264 1344.51 Q469.19 1355.71 443.264 1355.71 Q434.56 1355.71 425.301 1353.95 Q416.134 1352.29 406.32 1348.86 L406.32 1330.8 Q414.097 1335.34 423.356 1337.66 Q432.616 1339.97 442.708 1339.97 Q460.301 1339.97 469.467 1333.03 Q478.727 1326.08 478.727 1312.84 Q478.727 1300.62 470.115 1293.77 Q461.597 1286.82 446.319 1286.82 L430.208 1286.82 L430.208 1271.45 L447.06 1271.45 Q460.856 1271.45 468.171 1265.99 Q475.486 1260.43 475.486 1250.06 Q475.486 1239.42 467.893 1233.77 Q460.393 1228.03 446.319 1228.03 Q438.634 1228.03 429.838 1229.69 Q421.042 1231.36 410.486 1234.88 L410.486 1218.21 Q421.134 1215.25 430.393 1213.77 Q439.745 1212.29 447.986 1212.29 Q469.282 1212.29 481.689 1222.01 Q494.097 1231.64 494.097 1248.12 Q494.097 1259.6 487.523 1267.56 Q480.949 1275.43 468.819 1278.49 Z" fill="#000000" fill-rule="evenodd" fill-opacity="1" /><path clip-path="url(#clip300)" d="M 0 0 M299.746 238.697 Q285.302 238.697 277.987 252.956 Q270.765 267.123 270.765 295.641 Q270.765 324.067 277.987 338.326 Q285.302 352.493 299.746 352.493 Q314.283 352.493 321.505 338.326 Q328.82 324.067 328.82 295.641 Q328.82 267.123 321.505 252.956 Q314.283 238.697 299.746 238.697 M299.746 223.883 Q322.987 223.883 335.209 242.308 Q347.524 260.642 347.524 295.641 Q347.524 330.549 335.209 348.974 Q322.987 367.308 299.746 367.308 Q276.505 367.308 264.191 348.974 Q251.969 330.549 251.969 295.641 Q251.969 260.642 264.191 242.308 Q276.505 223.883 299.746 223.883 Z" fill="#000000" fill-rule="evenodd" fill-opacity="1" /><path clip-path="url(#clip300)" d="M 0 0 M367.801 341.104 L387.338 341.104 L387.338 364.623 L367.801 364.623 L367.801 341.104 Z" fill="#000000" fill-rule="evenodd" fill-opacity="1" /><path clip-path="url(#clip300)" d="M 0 0 M459.004 242.679 L411.782 316.475 L459.004 316.475 L459.004 242.679 M454.097 226.383 L477.615 226.383 L477.615 316.475 L497.338 316.475 L497.338 332.03 L477.615 332.03 L477.615 364.623 L459.004 364.623 L459.004 332.03 L396.597 332.03 L396.597 313.975 L454.097 226.383 Z" fill="#000000" fill-rule="evenodd" fill-opacity="1" /><polyline clip-path="url(#clip302)" style="stroke:#009af9; stroke-width:16; stroke-opacity:1; fill:none" points="
  690.819,4205.31 741.738,4190.28 792.658,4170.88 843.577,4146.12 894.496,4114.86 945.415,4075.87 996.334,4027.77 1047.25,3969.13 1098.17,3898.49 1149.09,3814.38 
  1200.01,3715.47 1250.93,3600.57 1301.85,3468.77 1352.77,3319.53 1403.69,3152.77 1454.61,2968.96 1505.53,2769.21 1556.44,2555.3 1607.36,2329.78 1658.28,2095.86 
  1709.2,1857.47 1760.12,1619.12 1811.04,1385.8 1861.96,1162.79 1912.88,955.513 1963.8,769.291 2014.72,609.122 2065.64,479.466 2116.56,384.037 2167.47,325.624 
  2218.39,305.957 2269.31,325.624 2320.23,384.037 2371.15,479.466 2422.07,609.122 2472.99,769.291 2523.91,955.513 2574.83,1162.79 2625.75,1385.8 2676.67,1619.12 
  2727.58,1857.47 2778.5,2095.86 2829.42,2329.78 2880.34,2555.3 2931.26,2769.21 2982.18,2968.96 3033.1,3152.77 3084.02,3319.53 3134.94,3468.77 3185.86,3600.57 
  3236.78,3715.47 3287.7,3814.38 3338.61,3898.49 3389.53,3969.13 3440.45,4027.77 3491.37,4075.87 3542.29,4114.86 3593.21,4146.12 3644.13,4170.88 3695.05,4190.28 
  3745.97,4205.31 
  "/>
<polyline clip-path="url(#clip302)" style="stroke:#e26f46; stroke-width:16; stroke-opacity:1; fill:none" points="
  2218.39,4205.31 2269.31,4190.28 2320.23,4170.88 2371.15,4146.12 2422.07,4114.86 2472.99,4075.87 2523.91,4027.77 2574.83,3969.13 2625.75,3898.49 2676.67,3814.38 
  2727.58,3715.47 2778.5,3600.57 2829.42,3468.77 2880.34,3319.53 2931.26,3152.77 2982.18,2968.96 3033.1,2769.21 3084.02,2555.3 3134.94,2329.78 3185.86,2095.86 
  3236.78,1857.47 3287.7,1619.12 3338.61,1385.8 3389.53,1162.79 3440.45,955.513 3491.37,769.291 3542.29,609.122 3593.21,479.466 3644.13,384.037 3695.05,325.624 
  3745.97,305.957 3796.89,325.624 3847.81,384.037 3898.73,479.466 3949.64,609.122 4000.56,769.291 4051.48,955.513 4102.4,1162.79 4153.32,1385.8 4204.24,1619.12 
  4255.16,1857.47 4306.08,2095.86 4357,2329.78 4407.92,2555.3 4458.84,2769.21 4509.75,2968.96 4560.67,3152.77 4611.59,3319.53 4662.51,3468.77 4713.43,3600.57 
  4764.35,3715.47 4815.27,3814.38 4866.19,3898.49 4917.11,3969.13 4968.03,4027.77 5018.95,4075.87 5069.87,4114.86 5120.78,4146.12 5171.7,4170.88 5222.62,4190.28 
  5273.54,4205.31 
  "/>
<polyline clip-path="url(#clip302)" style="stroke:#3da44d; stroke-width:16; stroke-opacity:1; fill:none" points="
  3055.94,8455.61 3055.94,-3944.34 
  "/>
<path clip-path="url(#clip300)" d="
M4112.51 1294.43 L5249.1 1294.43 L5249.1 326.754 L4112.51 326.754  Z
  " fill="#ffffff" fill-rule="evenodd" fill-opacity="1"/>
<polyline clip-path="url(#clip300)" style="stroke:#000000; stroke-width:16; stroke-opacity:1; fill:none" points="
  4112.51,1294.43 5249.1,1294.43 5249.1,326.754 4112.51,326.754 4112.51,1294.43 
  "/>
<polyline clip-path="url(#clip300)" style="stroke:#009af9; stroke-width:16; stroke-opacity:1; fill:none" points="
  4166.48,568.674 4490.33,568.674 
  "/>
<path clip-path="url(#clip300)" d="M 0 0 M4544.3 499.554 L4563.01 499.554 L4563.01 556.22 L4630.97 556.22 L4630.97 499.554 L4649.67 499.554 L4649.67 637.794 L4630.97 637.794 L4630.97 571.961 L4563.01 571.961 L4563.01 637.794 L4544.3 637.794 L4544.3 499.554 Z" fill="#000000" fill-rule="evenodd" fill-opacity="1" /><path clip-path="url(#clip300)" d="M 0 0 M4709.95 511.868 Q4695.51 511.868 4688.19 526.128 Q4680.97 540.294 4680.97 568.813 Q4680.97 597.238 4688.19 611.497 Q4695.51 625.664 4709.95 625.664 Q4724.49 625.664 4731.71 611.497 Q4739.02 597.238 4739.02 568.813 Q4739.02 540.294 4731.71 526.128 Q4724.49 511.868 4709.95 511.868 M4709.95 497.054 Q4733.19 497.054 4745.41 515.479 Q4757.73 533.813 4757.73 568.813 Q4757.73 603.72 4745.41 622.146 Q4733.19 640.479 4709.95 640.479 Q4686.71 640.479 4674.4 622.146 Q4662.17 603.72 4662.17 568.813 Q4662.17 533.813 4674.4 515.479 Q4686.71 497.054 4709.95 497.054 Z" fill="#000000" fill-rule="evenodd" fill-opacity="1" /><polyline clip-path="url(#clip300)" style="stroke:#e26f46; stroke-width:16; stroke-opacity:1; fill:none" points="
  4166.48,810.594 4490.33,810.594 
  "/>
<path clip-path="url(#clip300)" d="M 0 0 M4544.3 741.474 L4563.01 741.474 L4563.01 798.14 L4630.97 798.14 L4630.97 741.474 L4649.67 741.474 L4649.67 879.714 L4630.97 879.714 L4630.97 813.881 L4563.01 813.881 L4563.01 879.714 L4544.3 879.714 L4544.3 741.474 Z" fill="#000000" fill-rule="evenodd" fill-opacity="1" /><path clip-path="url(#clip300)" d="M 0 0 M4714.67 827.584 Q4694.02 827.584 4686.06 832.306 Q4678.1 837.029 4678.1 848.418 Q4678.1 857.492 4684.02 862.862 Q4690.04 868.14 4700.32 868.14 Q4714.49 868.14 4723.01 858.14 Q4731.62 848.047 4731.62 831.381 L4731.62 827.584 L4714.67 827.584 M4748.65 820.547 L4748.65 879.714 L4731.62 879.714 L4731.62 863.973 Q4725.78 873.417 4717.08 877.954 Q4708.38 882.399 4695.78 882.399 Q4679.86 882.399 4670.41 873.51 Q4661.06 864.529 4661.06 849.529 Q4661.06 832.029 4672.73 823.14 Q4684.49 814.251 4707.73 814.251 L4731.62 814.251 L4731.62 812.584 Q4731.62 800.825 4723.84 794.436 Q4716.15 787.955 4702.17 787.955 Q4693.28 787.955 4684.86 790.084 Q4676.43 792.214 4668.65 796.473 L4668.65 780.733 Q4678.01 777.122 4686.8 775.362 Q4695.6 773.511 4703.93 773.511 Q4726.43 773.511 4737.54 785.177 Q4748.65 796.844 4748.65 820.547 Z" fill="#000000" fill-rule="evenodd" fill-opacity="1" /><polyline clip-path="url(#clip300)" style="stroke:#3da44d; stroke-width:16; stroke-opacity:1; fill:none" points="
  4166.48,1052.51 4490.33,1052.51 
  "/>
<path clip-path="url(#clip300)" d="M 0 0 M4561.43 1106.08 L4561.43 1161.08 L4544.3 1161.08 L4544.3 1017.93 L4561.43 1017.93 L4561.43 1033.67 Q4566.8 1024.41 4574.95 1019.97 Q4583.19 1015.43 4594.58 1015.43 Q4613.47 1015.43 4625.23 1030.43 Q4637.08 1045.43 4637.08 1069.87 Q4637.08 1094.32 4625.23 1109.32 Q4613.47 1124.32 4594.58 1124.32 Q4583.19 1124.32 4574.95 1119.87 Q4566.8 1115.34 4561.43 1106.08 M4619.4 1069.87 Q4619.4 1051.08 4611.62 1040.43 Q4603.93 1029.69 4590.41 1029.69 Q4576.9 1029.69 4569.12 1040.43 Q4561.43 1051.08 4561.43 1069.87 Q4561.43 1088.67 4569.12 1099.41 Q4576.9 1110.06 4590.41 1110.06 Q4603.93 1110.06 4611.62 1099.41 Q4619.4 1088.67 4619.4 1069.87 Z" fill="#000000" fill-rule="evenodd" fill-opacity="1" /><path clip-path="url(#clip300)" d="M 0 0 M4646.34 1062.1 L4696.25 1062.1 L4696.25 1077.28 L4646.34 1077.28 L4646.34 1062.1 Z" fill="#000000" fill-rule="evenodd" fill-opacity="1" /><path clip-path="url(#clip300)" d="M 0 0 M4696.8 1017.93 L4714.86 1017.93 L4747.27 1104.97 L4779.67 1017.93 L4797.73 1017.93 L4758.84 1121.63 L4735.69 1121.63 L4696.8 1017.93 Z" fill="#000000" fill-rule="evenodd" fill-opacity="1" /><path clip-path="url(#clip300)" d="M 0 0 M4862.73 1069.5 Q4842.08 1069.5 4834.12 1074.23 Q4826.15 1078.95 4826.15 1090.34 Q4826.15 1099.41 4832.08 1104.78 Q4838.1 1110.06 4848.38 1110.06 Q4862.54 1110.06 4871.06 1100.06 Q4879.67 1089.97 4879.67 1073.3 L4879.67 1069.5 L4862.73 1069.5 M4896.71 1062.47 L4896.71 1121.63 L4879.67 1121.63 L4879.67 1105.89 Q4873.84 1115.34 4865.14 1119.87 Q4856.43 1124.32 4843.84 1124.32 Q4827.91 1124.32 4818.47 1115.43 Q4809.12 1106.45 4809.12 1091.45 Q4809.12 1073.95 4820.78 1065.06 Q4832.54 1056.17 4855.78 1056.17 L4879.67 1056.17 L4879.67 1054.5 Q4879.67 1042.75 4871.89 1036.36 Q4864.21 1029.87 4850.23 1029.87 Q4841.34 1029.87 4832.91 1032 Q4824.49 1034.13 4816.71 1038.39 L4816.71 1022.65 Q4826.06 1019.04 4834.86 1017.28 Q4843.65 1015.43 4851.99 1015.43 Q4874.49 1015.43 4885.6 1027.1 Q4896.71 1038.76 4896.71 1062.47 Z" fill="#000000" fill-rule="evenodd" fill-opacity="1" /><path clip-path="url(#clip300)" d="M 0 0 M4914.58 977.56 L4931.62 977.56 L4931.62 1121.63 L4914.58 1121.63 L4914.58 977.56 Z" fill="#000000" fill-rule="evenodd" fill-opacity="1" /><path clip-path="url(#clip300)" d="M 0 0 M4947.73 1080.71 L4947.73 1017.93 L4964.76 1017.93 L4964.76 1080.06 Q4964.76 1094.78 4970.5 1102.19 Q4976.25 1109.5 4987.73 1109.5 Q5001.52 1109.5 5009.49 1100.71 Q5017.54 1091.91 5017.54 1076.73 L5017.54 1017.93 L5034.58 1017.93 L5034.58 1121.63 L5017.54 1121.63 L5017.54 1105.71 Q5011.34 1115.15 5003.1 1119.78 Q4994.95 1124.32 4984.12 1124.32 Q4966.25 1124.32 4956.99 1113.21 Q4947.73 1102.1 4947.73 1080.71 M4990.6 1015.43 L4990.6 1015.43 Z" fill="#000000" fill-rule="evenodd" fill-opacity="1" /><path clip-path="url(#clip300)" d="M 0 0 M5141.15 1065.52 L5141.15 1073.86 L5062.82 1073.86 Q5063.93 1091.45 5073.37 1100.71 Q5082.91 1109.87 5099.86 1109.87 Q5109.67 1109.87 5118.84 1107.47 Q5128.1 1105.06 5137.17 1100.24 L5137.17 1116.36 Q5128 1120.24 5118.37 1122.28 Q5108.74 1124.32 5098.84 1124.32 Q5074.02 1124.32 5059.49 1109.87 Q5045.04 1095.43 5045.04 1070.8 Q5045.04 1045.34 5058.75 1030.43 Q5072.54 1015.43 5095.87 1015.43 Q5116.8 1015.43 5128.93 1028.95 Q5141.15 1042.37 5141.15 1065.52 M5124.12 1060.52 Q5123.93 1046.54 5116.24 1038.21 Q5108.65 1029.87 5096.06 1029.87 Q5081.8 1029.87 5073.19 1037.93 Q5064.67 1045.99 5063.37 1060.62 L5124.12 1060.52 Z" fill="#000000" fill-rule="evenodd" fill-opacity="1" /></svg>
